<svg xmlns="http://www.w3.org/2000/svg" version="1.1" xmlns:xlink="http://www.w3.org/1999/xlink" xmlns:svgjs="http://svgjs.dev/svgjs" viewBox="0 0 800 800"><defs><filter id="uuunion-blur" x="-100%" y="-100%" width="400%" height="400%" color-interpolation-filters="sRGB">
        <feGaussianBlur in="SourceGraphic" stdDeviation="0 0" result="blur"></feGaussianBlur>
        <feDropShadow stdDeviation="12.307692307692308" in="blur" dx="10" dy="10" flood-color="hsl(230, 55%, 40%)" flood-opacity="0.25" x="0%" y="0%" width="100%" height="100%"></feDropShadow>
      </filter><filter id="uuunion-blur2" x="-100%" y="-100%" width="400%" height="400%" color-interpolation-filters="sRGB">
        <feGaussianBlur in="SourceGraphic" stdDeviation="0 0" result="blur"></feGaussianBlur>
        <feDropShadow stdDeviation="12.307692307692308" in="blur" dx="-10" dy="-10" flood-color="hsl(230, 55%, 40%)" flood-opacity="0.25" x="0%" y="0%" width="100%" height="100%"></feDropShadow>
      </filter><linearGradient gradientTransform="rotate(84, 0.5, 0.5)" x1="50%" y1="0%" x2="50%" y2="100%" id="uuunion-grad"><stop stop-color="hsl(230, 55%, 70%)" offset="10%"></stop><stop stop-color="hsl(230, 55%, 40%)" offset="90%"></stop></linearGradient><linearGradient gradientTransform="rotate(135, 0.5, 0.5)" x1="50%" y1="0%" x2="50%" y2="100%" id="uuunion-grad2"><stop stop-color="hsl(230, 55%, 70%)" offset="25%"></stop><stop stop-color="hsl(230, 55%, 40%)" offset="100%"></stop></linearGradient><linearGradient gradientTransform="rotate(333, 0.5, 0.5)" x1="50%" y1="0%" x2="50%" y2="100%" id="uuunion-grad3"><stop stop-color="hsl(230, 55%, 70%)" offset="0%"></stop><stop stop-color="hsl(230, 55%, 40%)" offset="75%"></stop></linearGradient></defs><path d="M-78.9 -78.53Q-64.29 -76.32 -49.68 -74.37 -35.08 -72.8 -20.47 -71.73 -5.86 -71.23 8.74 -71.33 23.35 -72.03 37.96 -73.27 52.57 -74.98 67.18 -77.04 81.79 -79.3 96.39 -81.6 111 -83.8 125.61 -85.73 140.22 -87.27 154.83 -88.31 169.44 -88.77 184.05 -88.63 198.66 -87.9 213.27 -86.62 227.87 -84.89 242.48 -82.82 257.09 -80.55 271.7 -78.25 286.31 -76.06 300.92 -74.15 315.53 -72.64 330.14 -71.64 344.75 -71.21 359.35 -71.38 373.96 -72.15 388.57 -73.46 403.18 -75.22 417.79 -77.31 432.4 -79.58 447.01 -81.88 461.62 -84.05 476.23 -85.95 490.83 -87.43 505.44 -88.4 520.05 -88.79 534.66 -88.57 549.27 -87.77 563.88 -86.43 578.49 -84.65 593.1 -82.54 607.71 -80.26 622.32 -77.97 636.92 -75.81 651.53 -73.94 666.14 -72.49 680.75 -71.55 695.36 -71.2 709.97 -71.45 724.58 -72.29 739.19 -73.66 753.8 -75.47 768.4 -77.58 783.01 -79.87 797.62 -82.16 812.23 -84.31 826.84 -86.15 841.45 -87.58 856.06 -88.48 857.7 -73.69 860.98 -58.91 865.67 -44.13 871.42 -29.35 877.81 -14.56 884.35 0.21 890.58 14.99 896.02 29.78 900.27 44.56 903.03 59.34 904.09 74.13 903.36 88.91 900.91 103.69 896.91 118.48 891.66 133.26 885.55 148.04 879.03 162.83 872.58 177.61 866.67 192.39 861.76 207.17 858.19 221.96 856.23 236.74 856.03 251.52 857.6 266.31 860.83 281.09 865.47 295.87 871.19 310.66 877.56 325.44 884.1 340.22 890.35 355.01 895.83 369.79 900.14 384.57 902.96 399.36 904.08 414.14 903.42 428.92 901.03 443.7 897.09 458.49 891.88 473.27 885.79 488.05 879.28 502.84 872.82 517.62 866.88 532.4 861.92 547.19 858.3 561.97 856.27 576.75 856 591.54 857.51 606.32 860.68 621.1 865.27 635.88 870.95 650.67 877.31 665.45 883.86 680.23 890.12 695.02 895.64 709.8 900 724.58 902.88 739.37 904.07 754.15 903.48 768.93 901.15 783.72 897.26 798.5 892.1 813.28 886.04 828.07 879.53 842.85 873.06 857.63 858.17 860.01 843.28 863.76 828.4 868.63 813.51 874.28 798.62 880.33 783.74 886.35 768.85 891.94 753.96 896.7 739.08 900.31 724.19 902.53 709.3 903.19 694.42 902.25 679.53 899.79 664.64 895.96 649.76 891.03 634.87 885.34 619.98 879.28 605.1 873.28 590.21 867.73 575.32 863.03 560.44 859.5 545.55 857.38 530.66 856.81 515.78 857.84 500.89 860.4 486 864.31 471.12 869.3 456.23 875.02 441.34 881.08 426.46 887.08 411.57 892.58 396.68 897.22 381.8 900.67 366.91 902.69 352.02 903.16 337.14 902.03 322.25 899.38 307.36 895.4 292.48 890.36 277.59 884.6 262.7 878.53 247.82 872.56 232.93 867.1 218.04 862.52 203.16 859.15 188.27 857.22 173.38 856.85 158.5 858.08 143.61 860.82 128.72 864.87 113.84 869.97 98.95 875.76 84.06 881.84 69.18 887.79 54.29 893.21 39.4 897.71 24.52 901 9.63 902.84 -5.25 903.11 -20.13 901.78 -35.02 898.96 -49.91 894.83 -64.79 889.68 -79.68 883.86 -79.97 868.82 -80.27 853.78 -80.55 838.75 -80.78 823.71 -80.96 808.67 -81.07 793.63 -81.09 778.6 -81.04 763.56 -80.91 748.52 -80.71 733.48 -80.46 718.45 -80.17 703.41 -79.87 688.37 -79.58 673.33 -79.32 658.3 -79.11 643.26 -78.97 628.22 -78.9 613.18 -78.91 598.15 -79 583.11 -79.17 568.07 -79.4 553.03 -79.67 538 -79.96 522.96 -80.26 507.92 -80.54 492.88 -80.78 477.85 -80.96 462.81 -81.06 447.77 -81.09 432.73 -81.04 417.7 -80.91 402.66 -80.72 387.62 -80.47 372.58 -80.18 357.55 -79.88 342.51 -79.59 327.47 -79.33 312.43 -79.12 297.4 -78.97 282.36 -78.9 267.32 -78.91 252.28 -79 237.25 -79.16 222.21 -79.39 207.17 -79.66 192.13 -79.95 177.1 -80.25 162.06 -80.53 147.02 -80.77 131.98 -80.95 116.95 -81.06 101.91 -81.09 86.87 -81.05 71.83 -80.92 56.8 -80.73 41.76 -80.48 26.72 -80.19 11.69 -79.9 -3.34 -79.6 -18.38 -79.34 -33.42 -79.13 -48.45 -78.98 -63.49 -78.9 -78.53" fill="url(#uuunion-grad)"></path><path d="M-78.9 -78.53Q-78.98 -63.49 -79.13 -48.45 -79.34 -33.42 -79.6 -18.38 -79.9 -3.34 -80.19 11.69 -80.48 26.72 -80.73 41.76 -80.92 56.8 -81.05 71.83 -81.09 86.87 -81.06 101.91 -80.95 116.95 -80.77 131.98 -80.53 147.02 -80.25 162.06 -79.95 177.1 -79.66 192.13 -79.39 207.17 -79.16 222.21 -79 237.25 -78.91 252.28 -78.9 267.32 -78.97 282.36 -79.12 297.4 -79.33 312.43 -79.59 327.47 -79.88 342.51 -80.18 357.55 -80.47 372.58 -80.72 387.62 -80.91 402.66 -70.69 405.37 -60.48 407.92 -50.26 410.22 -40.04 412.21 -29.82 413.83 -19.6 415.02 -0.44 415.93 2.86 415.99 15.51 409.14 28.1 401.58 40.62 393.36 53.06 384.59 65.43 375.39 77.71 365.91 89.91 356.32 102.03 346.75 114.07 337.39 126.04 328.36 137.94 319.8 149.79 311.81 161.59 304.47 173.36 297.82 185.11 291.87 196.85 286.6 208.6 281.95 220.38 277.84 232.2 274.17 244.07 270.79 256.02 267.57 268.06 264.37 280.2 261.04 292.45 257.44 304.83 253.46 317.35 248.98 330 243.93 342.81 238.27 355.76 231.97 368.86 225.04 382.12 217.52 395.51 209.49 409.05 201.04 422.71 192.27 436.48 183.31 450.35 174.29 464.3 165.35 478.31 156.6 492.36 148.18 506.43 140.17 520.5 132.65 534.53 125.68 548.51 119.28 562.42 113.45 576.21 108.16 589.88 103.35 603.4 98.96 616.74 94.88 629.9 91.01 642.84 87.23 655.56 83.43 668.05 79.47 680.3 75.27 692.29 70.73 704.04 65.76 715.53 60.32 726.79 54.38 737.81 47.93 748.61 40.99 759.2 33.59 769.62 25.82 779.87 17.73 789.98 9.43 800 1.01 793.11 -16.5 786.92 -34.03 782.04 -51.56 778.97 -69.08 778 -86.61 779.24 -104.14 782.57 -121.66 787.64 -139.19 772.96 -137.19 758.27 -135.37 743.58 -133.87 728.9 -132.79 714.21 -132.2 699.52 -132.13 684.84 -132.61 670.15 -133.58 655.46 -134.99 640.78 -136.74 626.09 -138.71 611.4 -140.77 596.72 -142.78 582.03 -144.6 567.34 -146.1 552.66 -147.19 537.97 -147.79 523.28 -147.86 508.6 -147.39 493.91 -146.42 479.23 -145.02 464.54 -143.27 449.85 -141.3 435.17 -139.24 420.48 -137.24 405.79 -135.42 391.11 -133.91 376.42 -132.81 361.73 -132.21 347.05 -132.13 332.36 -132.59 317.67 -133.55 302.99 -134.95 288.3 -136.69 273.61 -138.66 258.93 -140.72 244.24 -142.73 229.55 -144.55 214.87 -146.07 200.18 -147.17 185.49 -147.78 170.81 -147.86 156.12 -147.41 141.43 -146.46 126.75 -145.06 112.06 -143.32 97.37 -141.36 82.69 -139.3 68 -137.29 53.32 -135.46 38.63 -133.94 23.94 -132.84 9.26 -132.22 -5.42 -132.12 -20.11 -132.57 -34.79 -133.52 -49.48 -134.91 -64.17 -136.64 -78.85 -138.61 -93.54 -140.66 -108.23 -142.68 -122.91 -144.51 -132.26 -132.5 -115.11 -113.86 -105.99 -105.15 -96.93 -96.34 -87.9 -87.45 -78.9 -78.53" fill="url(#uuunion-grad2)" filter="url(#uuunion-blur)"></path><path d="M818.38 401.63Q828.6 398.82 838.82 396.06 849.04 393.41 859.26 390.97 869.48 388.8 879.7 386.98 889.92 385.55 900.14 384.57 902.96 399.36 904.08 414.14 903.42 428.92 901.03 443.7 897.09 458.49 891.88 473.27 885.79 488.05 879.28 502.84 872.82 517.62 866.88 532.4 861.92 547.19 858.3 561.97 856.27 576.75 856 591.54 857.51 606.32 860.68 621.1 865.27 635.88 870.95 650.67 877.31 665.45 883.86 680.23 890.12 695.02 895.64 709.8 900 724.58 902.88 739.37 904.07 754.15 903.48 768.93 901.15 783.72 897.26 798.5 892.1 813.28 886.04 828.07 879.53 842.85 873.06 857.63 859.39 859.76 845.73 863.06 832.07 867.34 818.41 872.36 804.75 877.82 791.09 883.41 777.43 888.8 763.76 893.67 750.1 897.76 736.44 900.81 722.78 902.66 709.12 903.19 695.46 902.37 681.79 900.26 668.13 896.97 654.47 892.69 640.81 887.68 627.15 882.22 613.49 876.63 599.82 871.24 586.16 866.35 572.5 862.26 558.84 859.2 545.18 857.34 531.52 856.8 517.86 857.61 504.19 859.71 490.53 862.99 476.87 867.26 463.21 872.27 449.55 877.72 435.89 883.31 422.22 888.71 408.56 893.6 394.9 897.7 381.24 900.77 367.58 902.64 353.92 903.19 340.25 902.4 326.59 900.3 312.93 897.03 299.27 892.77 285.61 887.77 271.95 882.31 258.28 876.73 244.62 871.33 230.96 866.43 217.3 862.32 203.64 859.24 189.98 857.36 176.32 856.8 162.65 857.58 148.99 859.66 135.33 862.93 121.67 867.18 108.01 872.18 94.35 877.63 80.68 883.22 67.02 888.62 53.36 893.52 39.7 897.63 26.04 900.73 5.63 897.83 -0.93 882.89 -0.75 872.74 -0.58 862.59 -0.43 852.44 -0.3 842.29 0.1 827.07 0.91 822 13.77 815.13 26.62 807.24 39.47 798.43 52.31 788.82 65.1 778.58 77.85 767.9 90.55 757.01 103.17 746.12 115.73 735.45 128.19 725.22 140.57 715.61 152.85 706.78 165.03 698.84 177.11 691.86 189.1 685.88 201 680.86 212.81 676.75 224.54 673.43 236.2 670.75 247.81 668.54 259.37 666.6 270.9 664.73 282.43 662.7 293.96 660.33 305.51 657.43 317.1 653.84 328.76 649.45 340.49 644.17 352.32 637.97 364.26 630.85 376.33 622.86 388.54 614.1 400.9 604.69 413.43 594.78 426.13 584.57 439.01 574.24 452.07 563.98 465.31 553.99 478.72 544.45 492.31 535.5 506.06 527.27 519.96 519.85 533.99 513.28 548.14 507.57 562.38 502.69 576.71 498.55 591.08 495.07 605.48 492.08 619.89 489.44 634.26 486.96 648.57 484.47 662.81 481.79 676.92 478.74 690.9 475.18 704.72 470.99 718.34 466.07 731.75 460.36 744.93 453.86 757.85 446.59 770.52 438.59 782.91 429.96 795.02 420.83 812.61 406.48 818.38 401.63" fill="url(#uuunion-grad3)" filter="url(#uuunion-blur2)"></path></svg>